<?xml version="1.0" standalone="no"?>
<!DOCTYPE svg PUBLIC "-//W3C//DTD SVG 20010904//EN"
 "http://www.w3.org/TR/2001/REC-SVG-20010904/DTD/svg10.dtd">
<svg version="1.0" xmlns="http://www.w3.org/2000/svg"
 width="512.000000pt" height="512.000000pt" viewBox="0 0 512.000000 512.000000"
 preserveAspectRatio="xMidYMid meet">

<g transform="translate(0.000000,512.000000) scale(0.100000,-0.100000)"
fill="#000000" stroke="none">
<path d="M1535 4626 c-73 -33 -95 -83 -95 -212 l0 -94 -348 0 c-280 0 -359 -3
-407 -15 -172 -45 -305 -179 -350 -352 -23 -86 -23 -3020 0 -3106 45 -173 178
-307 350 -352 52 -13 277 -15 1875 -15 1598 0 1823 2 1875 15 172 45 305 179
350 352 23 86 23 3020 0 3106 -45 173 -178 307 -350 352 -48 12 -127 15 -406
15 l-347 0 -4 109 c-3 118 -12 141 -72 185 -39 29 -133 29 -172 0 -60 -44 -69
-67 -72 -185 l-4 -109 -798 0 -798 0 -4 109 c-3 118 -12 141 -70 184 -34 25
-113 32 -153 13z m-93 -735 c3 -118 12 -141 72 -185 39 -29 133 -29 172 0 60
44 69 67 72 185 l4 109 798 0 798 0 4 -109 c3 -118 12 -141 72 -185 39 -29
133 -29 172 0 60 44 69 67 72 185 l4 110 348 -3 c334 -3 350 -4 376 -24 15
-11 37 -33 48 -48 20 -26 21 -43 24 -297 l3 -269 -1921 0 -1920 0 0 254 c0
264 4 292 43 335 45 48 59 50 419 51 l336 0 4 -109z m3036 -1920 c-3 -1063 -3
-1070 -24 -1097 -11 -15 -33 -37 -48 -48 l-27 -21 -1819 0 -1819 0 -27 21
c-15 11 -37 33 -48 48 -21 27 -21 34 -24 1097 l-2 1069 1920 0 1920 0 -2
-1069z"/>
<path d="M1535 2546 c-37 -17 -70 -52 -84 -89 -6 -16 -11 -103 -11 -202 l0
-174 -189 -3 c-207 -3 -216 -6 -265 -72 -29 -39 -29 -133 0 -172 49 -66 58
-69 264 -72 l189 -3 3 -189 c3 -206 6 -215 72 -264 39 -29 133 -29 172 0 66
49 69 58 72 264 l3 189 189 3 c206 3 215 6 264 72 29 39 29 133 0 172 -49 66
-58 69 -264 72 l-189 3 -3 189 c-3 206 -6 215 -70 263 -34 25 -113 32 -153 13z"/>
<path d="M2655 2386 c-97 -43 -124 -171 -54 -251 45 -51 78 -57 301 -53 215 3
223 5 272 72 29 39 29 133 0 172 -50 67 -55 69 -282 71 -157 2 -214 0 -237
-11z"/>
<path d="M3615 2386 c-97 -43 -124 -171 -54 -251 45 -51 78 -57 301 -53 215 3
223 5 272 72 29 39 29 133 0 172 -50 67 -55 69 -282 71 -157 2 -214 0 -237
-11z"/>
<path d="M2655 1746 c-97 -43 -124 -171 -54 -251 45 -51 78 -57 301 -53 215 3
223 5 272 72 29 39 29 133 0 172 -50 67 -55 69 -282 71 -157 2 -214 0 -237
-11z"/>
<path d="M3615 1746 c-97 -43 -124 -171 -54 -251 45 -51 78 -57 301 -53 215 3
223 5 272 72 29 39 29 133 0 172 -50 67 -55 69 -282 71 -157 2 -214 0 -237
-11z"/>
</g>
</svg>
